<svg class="railroad-diagram" height="154" viewBox="0 0 447.0 154" width="447.0" xmlns="http://www.w3.org/2000/svg">
<g transform="translate(.5 .5)">
<style>/* <![CDATA[ */
	svg.railroad-diagram {
		background-color:hsl(30,20%,95%);
	}
	svg.railroad-diagram path {
		stroke-width:3;
		stroke:black;
		fill:rgba(0,0,0,0);
	}
	svg.railroad-diagram text {
		font:bold 14px monospace;
		text-anchor:middle;
	}
	svg.railroad-diagram text.label{
		text-anchor:start;
	}
	svg.railroad-diagram text.comment{
		font:italic 12px monospace;
	}
	svg.railroad-diagram rect{
		stroke-width:3;
		stroke:black;
		fill:hsl(120,100%,90%);
	}
	svg.railroad-diagram rect.group-box {
		stroke: gray;
		stroke-dasharray: 10 5;
		fill: none;
	}

/* ]]> */
</style><g>
<path d="M20 45v20m0 -10h86.5"></path><text style="text-anchor:start" x="20" y="40">variables</text></g><path d="M106.5 55h10"></path><g>
<path d="M116.5 55h0.0"></path><path d="M397.0 55h0.0"></path><rect class="group-box" height="98" rx="10" ry="10" width="280.5" x="116.5" y="36"></rect><g>
<path d="M116.5 55h0.0"></path><path d="M397.0 55h0.0"></path><path d="M116.5 55h20"></path><g>
<path d="M136.5 55h0.0"></path><path d="M377.0 55h0.0"></path><g class="non-terminal ">
<path d="M136.5 55h0.0"></path><path d="M190.5 55h0.0"></path><rect height="22" width="54.0" x="136.5" y="44"></rect><text x="163.5" y="59">{id}</text></g><path d="M190.5 55h10"></path><path d="M200.5 55h10"></path><g class="terminal ">
<path d="M210.5 55h0.0"></path><path d="M239.0 55h0.0"></path><rect height="22" rx="10" ry="10" width="28.5" x="210.5" y="44"></rect><text x="224.75" y="59">=</text></g><path d="M239.0 55h10"></path><g>
<path d="M249.0 55h0.0"></path><path d="M377.0 55h0.0"></path><path d="M249.0 55h20"></path><g class="non-terminal ">
<path d="M269.0 55h8.5"></path><path d="M348.5 55h8.5"></path><rect height="22" width="71.0" x="277.5" y="44"></rect><text x="313.0" y="59">{word}</text></g><path d="M357.0 55h20"></path><path d="M249.0 55a10 10 0 0 1 10 10v10a10 10 0 0 0 10 10"></path><g class="non-terminal ">
<path d="M269.0 85h0.0"></path><path d="M357.0 85h0.0"></path><rect height="22" width="88.0" x="269.0" y="74"></rect><text x="313.0" y="89">{string}</text></g><path d="M357.0 85a10 10 0 0 0 10 -10v-10a10 10 0 0 1 10 -10"></path></g></g><path d="M377.0 55h20"></path><path d="M116.5 55a10 10 0 0 1 10 10v40a10 10 0 0 0 10 10"></path><g>
<path d="M136.5 115h69.0"></path><path d="M308.0 115h69.0"></path><g class="terminal ">
<path d="M205.5 115h0.0"></path><path d="M234.0 115h0.0"></path><rect height="22" rx="10" ry="10" width="28.5" x="205.5" y="104"></rect><text x="219.75" y="119">$</text></g><path d="M234.0 115h10"></path><path d="M244.0 115h10"></path><g class="non-terminal ">
<path d="M254.0 115h0.0"></path><path d="M308.0 115h0.0"></path><rect height="22" width="54.0" x="254.0" y="104"></rect><text x="281.0" y="119">{id}</text></g></g><path d="M377.0 115a10 10 0 0 0 10 -10v-40a10 10 0 0 1 10 -10"></path></g><g class="non-terminal ">
<path d="M116.5 28h0.0"></path><path d="M189.5 28h0.0"></path><text class="comment" x="153.0" y="33">variables</text></g></g><path d="M397.0 55h10"></path><path d="M 407.0 55 h 20 m 0 -10 v 20"></path></g></svg>