<svg class="railroad-diagram" height="124" viewBox="0 0 353.0 124" width="353.0" xmlns="http://www.w3.org/2000/svg">
<g transform="translate(.5 .5)">
<style>/* <![CDATA[ */
	svg.railroad-diagram {
		background-color:hsl(30,20%,95%);
	}
	svg.railroad-diagram path {
		stroke-width:3;
		stroke:black;
		fill:rgba(0,0,0,0);
	}
	svg.railroad-diagram text {
		font:bold 14px monospace;
		text-anchor:middle;
	}
	svg.railroad-diagram text.label{
		text-anchor:start;
	}
	svg.railroad-diagram text.comment{
		font:italic 12px monospace;
	}
	svg.railroad-diagram rect{
		stroke-width:3;
		stroke:black;
		fill:hsl(120,100%,90%);
	}
	svg.railroad-diagram rect.group-box {
		stroke: gray;
		stroke-dasharray: 10 5;
		fill: none;
	}

/* ]]> */
</style><g>
<path d="M20 45v20m0 -10h112.0"></path><text style="text-anchor:start" x="20" y="40">external&#95;cmd</text></g><path d="M132.0 55h10"></path><g>
<path d="M142.0 55h0.0"></path><path d="M303.0 55h0.0"></path><rect class="group-box" height="68" rx="10" ry="10" width="161.0" x="142.0" y="36"></rect><g>
<path d="M142.0 55h10.0"></path><path d="M293.0 55h10.0"></path><g>
<path d="M152.0 55h0.0"></path><path d="M293.0 55h0.0"></path><path d="M182.0 55h10"></path><g class="non-terminal ">
<path d="M192.0 55h0.0"></path><path d="M263.0 55h0.0"></path><rect height="22" width="71.0" x="192.0" y="44"></rect><text x="227.5" y="59">{path}</text></g><path d="M263.0 55h10"></path><path d="M182.0 55v20a10 10 0 0 0 10 10"></path><g class="non-terminal ">
<path d="M192.0 85h4.25"></path><path d="M258.75 85h4.25"></path><rect height="22" width="62.5" x="196.25" y="74"></rect><text x="227.5" y="89">{arg}</text></g><path d="M263.0 85a10 10 0 0 0 10 -10v-10"></path><g class="diagram-text">
<title>take one or more branches, once each, in any order</title><path class="diagram-text" d="M 182.0 45 h -26 a 4 4 0 0 0 -4 4 v 12 a 4 4 0 0 0 4 4 h 26 z"></path><text class="diagram-text" x="167.0" y="59">1+</text><path class="diagram-text" d="M 273.0 45 h 16 a 4 4 0 0 1 4 4 v 12 a 4 4 0 0 1 -4 4 h -16 z"></path><text class="diagram-arrow" x="283.0" y="59">↺</text></g></g></g><g class="non-terminal ">
<path d="M142.0 28h0.0"></path><path d="M236.0 28h0.0"></path><text class="comment" x="189.0" y="33">external&#95;cmd</text></g></g><path d="M303.0 55h10"></path><path d="M 313.0 55 h 20 m 0 -10 v 20"></path></g></svg>