<svg class="railroad-diagram" height="195" viewBox="0 0 447.0 195" width="447.0" xmlns="http://www.w3.org/2000/svg">
<g transform="translate(.5 .5)">
<style>/* <![CDATA[ */
	svg.railroad-diagram {
		background-color:hsl(30,20%,95%);
	}
	svg.railroad-diagram path {
		stroke-width:3;
		stroke:black;
		fill:rgba(0,0,0,0);
	}
	svg.railroad-diagram text {
		font:bold 14px monospace;
		text-anchor:middle;
	}
	svg.railroad-diagram text.label{
		text-anchor:start;
	}
	svg.railroad-diagram text.comment{
		font:italic 12px monospace;
	}
	svg.railroad-diagram rect{
		stroke-width:3;
		stroke:black;
		fill:hsl(120,100%,90%);
	}
	svg.railroad-diagram rect.group-box {
		stroke: gray;
		stroke-dasharray: 10 5;
		fill: none;
	}

/* ]]> */
</style><g>
<path d="M20 54v20m0 -10h86.5"></path><text style="text-anchor:start" x="20" y="49">variables</text></g><g>
<path d="M106.5 64h0.0"></path><path d="M407.0 64h0.0"></path><path d="M106.5 64h20"></path><g>
<path d="M126.5 64h0.0"></path><path d="M387.0 64h0.0"></path><rect class="group-box" height="77" rx="10" ry="10" width="260.5" x="126.5" y="36"></rect><g>
<path d="M126.5 64h10.0"></path><path d="M377.0 64h10.0"></path><g class="non-terminal ">
<path d="M136.5 64h0.0"></path><path d="M190.5 64h0.0"></path><rect height="22" width="54.0" x="136.5" y="53"></rect><text x="163.5" y="68">{id}</text></g><path d="M190.5 64h10"></path><path d="M200.5 64h10"></path><g class="terminal ">
<path d="M210.5 64h0.0"></path><path d="M239.0 64h0.0"></path><rect height="22" rx="10" ry="10" width="28.5" x="210.5" y="53"></rect><text x="224.75" y="68">=</text></g><path d="M239.0 64h10"></path><g>
<path d="M249.0 64h0.0"></path><path d="M377.0 64h0.0"></path><path d="M249.0 64a10 10 0 0 0 10 -10v0a10 10 0 0 1 10 -10"></path><g>
<path d="M269.0 44h88.0"></path></g><path d="M357.0 44a10 10 0 0 1 10 10v0a10 10 0 0 0 10 10"></path><path d="M249.0 64h20"></path><g class="non-terminal ">
<path d="M269.0 64h8.5"></path><path d="M348.5 64h8.5"></path><rect height="22" width="71.0" x="277.5" y="53"></rect><text x="313.0" y="68">{word}</text></g><path d="M357.0 64h20"></path><path d="M249.0 64a10 10 0 0 1 10 10v10a10 10 0 0 0 10 10"></path><g class="non-terminal ">
<path d="M269.0 94h0.0"></path><path d="M357.0 94h0.0"></path><rect height="22" width="88.0" x="269.0" y="83"></rect><text x="313.0" y="98">{string}</text></g><path d="M357.0 94a10 10 0 0 0 10 -10v-10a10 10 0 0 1 10 -10"></path></g></g><g class="non-terminal ">
<path d="M126.5 28h0.0"></path><path d="M241.5 28h0.0"></path><text class="comment" x="184.0" y="33">variable&#95;assign</text></g></g><path d="M387.0 64h20"></path><path d="M106.5 64a10 10 0 0 1 10 10v72a10 10 0 0 0 10 10"></path><g>
<path d="M126.5 156h69.0"></path><path d="M318.0 156h69.0"></path><rect class="group-box" height="38" rx="10" ry="10" width="122.5" x="195.5" y="137"></rect><g>
<path d="M195.5 156h10.0"></path><path d="M308.0 156h10.0"></path><g class="terminal ">
<path d="M205.5 156h0.0"></path><path d="M234.0 156h0.0"></path><rect height="22" rx="10" ry="10" width="28.5" x="205.5" y="145"></rect><text x="219.75" y="160">$</text></g><path d="M234.0 156h10"></path><path d="M244.0 156h10"></path><g class="non-terminal ">
<path d="M254.0 156h0.0"></path><path d="M308.0 156h0.0"></path><rect height="22" width="54.0" x="254.0" y="145"></rect><text x="281.0" y="160">{id}</text></g></g><g class="non-terminal ">
<path d="M195.5 129h0.0"></path><path d="M310.5 129h0.0"></path><text class="comment" x="253.0" y="134">variable&#95;access</text></g></g><path d="M387.0 156a10 10 0 0 0 10 -10v-72a10 10 0 0 1 10 -10"></path></g><path d="M 407.0 64 h 20 m 0 -10 v 20"></path></g></svg>