<svg class="railroad-diagram" height="268" viewBox="0 0 424.0 268" width="424.0" xmlns="http://www.w3.org/2000/svg">
<g transform="translate(.5 .5)">
<style>/* <![CDATA[ */
	svg.railroad-diagram {
		background-color:hsl(30,20%,95%);
	}
	svg.railroad-diagram path {
		stroke-width:3;
		stroke:black;
		fill:rgba(0,0,0,0);
	}
	svg.railroad-diagram text {
		font:bold 14px monospace;
		text-anchor:middle;
	}
	svg.railroad-diagram text.label{
		text-anchor:start;
	}
	svg.railroad-diagram text.comment{
		font:italic 12px monospace;
	}
	svg.railroad-diagram rect{
		stroke-width:3;
		stroke:black;
		fill:hsl(120,100%,90%);
	}
	svg.railroad-diagram rect.group-box {
		stroke: gray;
		stroke-dasharray: 10 5;
		fill: none;
	}

/* ]]> */
</style><g>
<path d="M20 75v20m0 -10h112.0"></path><text style="text-anchor:start" x="20" y="70">internal&#95;cmd</text></g><path d="M132.0 85h10"></path><g>
<path d="M142.0 85h0.0"></path><path d="M374.0 85h0.0"></path><rect class="group-box" height="212" rx="10" ry="10" width="232.0" x="142.0" y="36"></rect><g>
<path d="M142.0 85h0.0"></path><path d="M374.0 85h0.0"></path><path d="M142.0 85h20"></path><g>
<path d="M162.0 85h0.0"></path><path d="M354.0 85h0.0"></path><g class="terminal ">
<path d="M162.0 85h0.0"></path><path d="M216.0 85h0.0"></path><rect height="22" rx="10" ry="10" width="54.0" x="162.0" y="74"></rect><text x="189.0" y="89">echo</text></g><path d="M216.0 85h10"></path><g>
<path d="M226.0 85h0.0"></path><path d="M354.0 85h0.0"></path><path d="M226.0 85a10 10 0 0 0 10 -10v-10a10 10 0 0 1 10 -10"></path><g class="non-terminal ">
<path d="M246.0 55h0.0"></path><path d="M334.0 55h0.0"></path><rect height="22" width="88.0" x="246.0" y="44"></rect><text x="290.0" y="59">{string}</text></g><path d="M334.0 55a10 10 0 0 1 10 10v10a10 10 0 0 0 10 10"></path><path d="M226.0 85h20"></path><g class="non-terminal ">
<path d="M246.0 85h8.5"></path><path d="M325.5 85h8.5"></path><rect height="22" width="71.0" x="254.5" y="74"></rect><text x="290.0" y="89">{path}</text></g><path d="M334.0 85h20"></path><path d="M226.0 85a10 10 0 0 1 10 10v7a10 10 0 0 0 10 10"></path><g class="non-terminal ">
<path d="M246.0 112h7.5"></path><path d="M326.5 112h7.5"></path><text class="comment" x="290.0" y="117">{command}</text></g><path d="M334.0 112a10 10 0 0 0 10 -10v-7a10 10 0 0 1 10 -10"></path></g></g><path d="M354.0 85h20"></path><path d="M142.0 85a10 10 0 0 1 10 10v34a10 10 0 0 0 10 10"></path><g class="terminal ">
<path d="M162.0 139h73.25"></path><path d="M280.75 139h73.25"></path><rect height="22" rx="10" ry="10" width="45.5" x="235.25" y="128"></rect><text x="258.0" y="143">pwd</text></g><path d="M354.0 139a10 10 0 0 0 10 -10v-34a10 10 0 0 1 10 -10"></path><path d="M142.0 85a10 10 0 0 1 10 10v64a10 10 0 0 0 10 10"></path><g class="terminal ">
<path d="M162.0 169h52.0"></path><path d="M302.0 169h52.0"></path><rect height="22" rx="10" ry="10" width="88.0" x="214.0" y="158"></rect><text x="258.0" y="173">showpath</text></g><path d="M354.0 169a10 10 0 0 0 10 -10v-64a10 10 0 0 1 10 -10"></path><path d="M142.0 85a10 10 0 0 1 10 10v94a10 10 0 0 0 10 10"></path><g>
<path d="M162.0 199h10.75"></path><path d="M343.25 199h10.75"></path><g class="terminal ">
<path d="M172.75 199h0.0"></path><path d="M252.25 199h0.0"></path><rect height="22" rx="10" ry="10" width="79.5" x="172.75" y="188"></rect><text x="212.5" y="203">addpath</text></g><path d="M252.25 199h10"></path><path d="M262.25 199h10"></path><g class="non-terminal ">
<path d="M272.25 199h0.0"></path><path d="M343.25 199h0.0"></path><rect height="22" width="71.0" x="272.25" y="188"></rect><text x="307.75" y="203">{path}</text></g></g><path d="M354.0 199a10 10 0 0 0 10 -10v-94a10 10 0 0 1 10 -10"></path><path d="M142.0 85a10 10 0 0 1 10 10v124a10 10 0 0 0 10 10"></path><g class="terminal ">
<path d="M162.0 229h56.25"></path><path d="M297.75 229h56.25"></path><rect height="22" rx="10" ry="10" width="79.5" x="218.25" y="218"></rect><text x="258.0" y="233">delpath</text></g><path d="M354.0 229a10 10 0 0 0 10 -10v-124a10 10 0 0 1 10 -10"></path></g><g class="non-terminal ">
<path d="M142.0 28h0.0"></path><path d="M236.0 28h0.0"></path><text class="comment" x="189.0" y="33">internal&#95;cmd</text></g></g><path d="M374.0 85h10"></path><path d="M 384.0 85 h 20 m 0 -10 v 20"></path></g></svg>