<svg class="railroad-diagram" height="396" viewBox="0 0 426.0 396" width="426.0" xmlns="http://www.w3.org/2000/svg">
<g transform="translate(.5 .5)">
<style>/* <![CDATA[ */
	svg.railroad-diagram {
		background-color:hsl(30,20%,95%);
	}
	svg.railroad-diagram path {
		stroke-width:3;
		stroke:black;
		fill:rgba(0,0,0,0);
	}
	svg.railroad-diagram text {
		font:bold 14px monospace;
		text-anchor:middle;
	}
	svg.railroad-diagram text.label{
		text-anchor:start;
	}
	svg.railroad-diagram text.comment{
		font:italic 12px monospace;
	}
	svg.railroad-diagram rect{
		stroke-width:3;
		stroke:black;
		fill:hsl(120,100%,90%);
	}
	svg.railroad-diagram rect.group-box {
		stroke: gray;
		stroke-dasharray: 10 5;
		fill: none;
	}

/* ]]> */
</style><g>
<path d="M20 38v20m10 -20v20m-10 -10h61.0"></path><text style="text-anchor:start" x="20" y="33">Parser</text></g><path d="M81.0 48h10"></path><g>
<path d="M91.0 48h0.0"></path><path d="M376.0 48h0.0"></path><path d="M121.0 48v-10a10 10 0 0 1 10 -10"></path><g class="non-terminal ">
<path d="M131.0 28h85.0"></path><path d="M261.0 28h85.0"></path><text class="comment" x="238.5" y="33">error</text></g><path d="M346.0 28a10 10 0 0 1 10 10v0"></path><path d="M121.0 48h10"></path><g>
<path d="M131.0 48h215.0"></path></g><path d="M346.0 48h10"></path><path d="M121.0 48v33a10 10 0 0 0 10 10"></path><g>
<path d="M131.0 91h0.0"></path><path d="M346.0 91h0.0"></path><rect class="group-box" height="212" rx="10" ry="10" width="215.0" x="131.0" y="72"></rect><g>
<path d="M131.0 91h0.0"></path><path d="M346.0 91h0.0"></path><path d="M131.0 91h20"></path><g>
<path d="M151.0 91h0.0"></path><path d="M326.0 91h0.0"></path><g class="terminal ">
<path d="M151.0 91h0.0"></path><path d="M205.0 91h0.0"></path><rect height="22" rx="10" ry="10" width="54.0" x="151.0" y="80"></rect><text x="178.0" y="95">echo</text></g><path d="M205.0 91h10"></path><g>
<path d="M215.0 91h0.0"></path><path d="M326.0 91h0.0"></path><path d="M215.0 91h20"></path><g class="non-terminal ">
<path d="M235.0 91h8.5"></path><path d="M297.5 91h8.5"></path><rect height="22" width="54.0" x="243.5" y="80"></rect><text x="270.5" y="95">PATH</text></g><path d="M306.0 91h20"></path><path d="M215.0 91a10 10 0 0 1 10 10v10a10 10 0 0 0 10 10"></path><g class="non-terminal ">
<path d="M235.0 121h0.0"></path><path d="M306.0 121h0.0"></path><rect height="22" width="71.0" x="235.0" y="110"></rect><text x="270.5" y="125">STRING</text></g><path d="M306.0 121a10 10 0 0 0 10 -10v-10a10 10 0 0 1 10 -10"></path><path d="M215.0 91a10 10 0 0 1 10 10v37a10 10 0 0 0 10 10"></path><g class="non-terminal ">
<path d="M235.0 148h6.0"></path><path d="M300.0 148h6.0"></path><text class="comment" x="270.5" y="153">COMMAND</text></g><path d="M306.0 148a10 10 0 0 0 10 -10v-37a10 10 0 0 1 10 -10"></path></g></g><path d="M326.0 91h20"></path><path d="M131.0 91a10 10 0 0 1 10 10v64a10 10 0 0 0 10 10"></path><g class="terminal ">
<path d="M151.0 175h64.75"></path><path d="M261.25 175h64.75"></path><rect height="22" rx="10" ry="10" width="45.5" x="215.75" y="164"></rect><text x="238.5" y="179">pwd</text></g><path d="M326.0 175a10 10 0 0 0 10 -10v-64a10 10 0 0 1 10 -10"></path><path d="M131.0 91a10 10 0 0 1 10 10v94a10 10 0 0 0 10 10"></path><g class="terminal ">
<path d="M151.0 205h43.5"></path><path d="M282.5 205h43.5"></path><rect height="22" rx="10" ry="10" width="88.0" x="194.5" y="194"></rect><text x="238.5" y="209">showpath</text></g><path d="M326.0 205a10 10 0 0 0 10 -10v-94a10 10 0 0 1 10 -10"></path><path d="M131.0 91a10 10 0 0 1 10 10v124a10 10 0 0 0 10 10"></path><g>
<path d="M151.0 235h10.75"></path><path d="M315.25 235h10.75"></path><g class="terminal ">
<path d="M161.75 235h0.0"></path><path d="M241.25 235h0.0"></path><rect height="22" rx="10" ry="10" width="79.5" x="161.75" y="224"></rect><text x="201.5" y="239">addpath</text></g><path d="M241.25 235h10"></path><path d="M251.25 235h10"></path><g class="non-terminal ">
<path d="M261.25 235h0.0"></path><path d="M315.25 235h0.0"></path><rect height="22" width="54.0" x="261.25" y="224"></rect><text x="288.25" y="239">PATH</text></g></g><path d="M326.0 235a10 10 0 0 0 10 -10v-124a10 10 0 0 1 10 -10"></path><path d="M131.0 91a10 10 0 0 1 10 10v154a10 10 0 0 0 10 10"></path><g class="terminal ">
<path d="M151.0 265h47.75"></path><path d="M278.25 265h47.75"></path><rect height="22" rx="10" ry="10" width="79.5" x="198.75" y="254"></rect><text x="238.5" y="269">delpath</text></g><path d="M326.0 265a10 10 0 0 0 10 -10v-154a10 10 0 0 1 10 -10"></path></g><g class="non-terminal ">
<path d="M131.0 64h0.0"></path><path d="M225.0 64h0.0"></path><text class="comment" x="178.0" y="69">internal&#95;cmd</text></g></g><path d="M346.0 91a10 10 0 0 0 10 -10v-23"></path><path d="M121.0 48v269a10 10 0 0 0 10 10"></path><g>
<path d="M131.0 327h2.75"></path><path d="M343.25 327h2.75"></path><rect class="group-box" height="68" rx="10" ry="10" width="209.5" x="133.75" y="308"></rect><g>
<path d="M133.75 327h10.0"></path><path d="M333.25 327h10.0"></path><g>
<path d="M143.75 327h0.0"></path><path d="M267.75 327h0.0"></path><path d="M173.75 327h10"></path><g class="non-terminal ">
<path d="M183.75 327h0.0"></path><path d="M237.75 327h0.0"></path><rect height="22" width="54.0" x="183.75" y="316"></rect><text x="210.75" y="331">PATH</text></g><path d="M237.75 327h10"></path><path d="M173.75 327v20a10 10 0 0 0 10 10"></path><g class="non-terminal ">
<path d="M183.75 357h4.25"></path><path d="M233.5 357h4.25"></path><rect height="22" width="45.5" x="188.0" y="346"></rect><text x="210.75" y="361">ARG</text></g><path d="M237.75 357a10 10 0 0 0 10 -10v-10"></path><g class="diagram-text">
<title>take one or more branches, once each, in any order</title><path class="diagram-text" d="M 173.75 317 h -26 a 4 4 0 0 0 -4 4 v 12 a 4 4 0 0 0 4 4 h 26 z"></path><text class="diagram-text" x="158.75" y="331">1+</text><path class="diagram-text" d="M 247.75 317 h 16 a 4 4 0 0 1 4 4 v 12 a 4 4 0 0 1 -4 4 h -16 z"></path><text class="diagram-arrow" x="257.75" y="331">↺</text></g></g><path d="M267.75 327h10"></path><path d="M277.75 327h10"></path><g class="non-terminal ">
<path d="M287.75 327h0.0"></path><path d="M333.25 327h0.0"></path><rect height="22" width="45.5" x="287.75" y="316"></rect><text x="310.5" y="331">EOL</text></g></g><g class="non-terminal ">
<path d="M133.75 300h0.0"></path><path d="M227.75 300h0.0"></path><text class="comment" x="180.75" y="305">external&#95;cmd</text></g></g><path d="M346.0 327a10 10 0 0 0 10 -10v-259"></path><g class="diagram-text">
<title>take one or more branches, once each, in any order</title><path class="diagram-text" d="M 121.0 38 h -26 a 4 4 0 0 0 -4 4 v 12 a 4 4 0 0 0 4 4 h 26 z"></path><text class="diagram-text" x="106.0" y="52">1+</text><path class="diagram-text" d="M 356.0 38 h 16 a 4 4 0 0 1 4 4 v 12 a 4 4 0 0 1 -4 4 h -16 z"></path><text class="diagram-arrow" x="366.0" y="52">↺</text></g></g><path d="M376.0 48h10"></path><path d="M 386.0 48 h 20 m -10 -10 v 20 m 10 -20 v 20"></path></g></svg>