<svg class="railroad-diagram" height="392" viewBox="0 0 426.0 392" width="426.0" xmlns="http://www.w3.org/2000/svg">
<g transform="translate(.5 .5)">
<style>/* <![CDATA[ */
	svg.railroad-diagram {
		background-color:hsl(30,20%,95%);
	}
	svg.railroad-diagram path {
		stroke-width:3;
		stroke:black;
		fill:rgba(0,0,0,0);
	}
	svg.railroad-diagram text {
		font:bold 14px monospace;
		text-anchor:middle;
	}
	svg.railroad-diagram text.label{
		text-anchor:start;
	}
	svg.railroad-diagram text.comment{
		font:italic 12px monospace;
	}
	svg.railroad-diagram rect{
		stroke-width:3;
		stroke:black;
		fill:hsl(120,100%,90%);
	}
	svg.railroad-diagram rect.group-box {
		stroke: gray;
		stroke-dasharray: 10 5;
		fill: none;
	}

/* ]]> */
</style><g>
<path d="M20 45v20m10 -20v20m-10 -10h61.0"></path><text style="text-anchor:start" x="20" y="40">Parser</text></g><path d="M81.0 55h10"></path><g>
<path d="M91.0 55h0.0"></path><path d="M376.0 55h0.0"></path><path d="M121.0 55h10"></path><g>
<path d="M131.0 55h0.0"></path><path d="M346.0 55h0.0"></path><rect class="group-box" height="212" rx="10" ry="10" width="215.0" x="131.0" y="36"></rect><g>
<path d="M131.0 55h0.0"></path><path d="M346.0 55h0.0"></path><path d="M131.0 55h20"></path><g>
<path d="M151.0 55h0.0"></path><path d="M326.0 55h0.0"></path><g class="terminal ">
<path d="M151.0 55h0.0"></path><path d="M205.0 55h0.0"></path><rect height="22" rx="10" ry="10" width="54.0" x="151.0" y="44"></rect><text x="178.0" y="59">echo</text></g><path d="M205.0 55h10"></path><g>
<path d="M215.0 55h0.0"></path><path d="M326.0 55h0.0"></path><path d="M215.0 55h20"></path><g class="non-terminal ">
<path d="M235.0 55h8.5"></path><path d="M297.5 55h8.5"></path><rect height="22" width="54.0" x="243.5" y="44"></rect><text x="270.5" y="59">PATH</text></g><path d="M306.0 55h20"></path><path d="M215.0 55a10 10 0 0 1 10 10v10a10 10 0 0 0 10 10"></path><g class="non-terminal ">
<path d="M235.0 85h0.0"></path><path d="M306.0 85h0.0"></path><rect height="22" width="71.0" x="235.0" y="74"></rect><text x="270.5" y="89">STRING</text></g><path d="M306.0 85a10 10 0 0 0 10 -10v-10a10 10 0 0 1 10 -10"></path><path d="M215.0 55a10 10 0 0 1 10 10v37a10 10 0 0 0 10 10"></path><g class="non-terminal ">
<path d="M235.0 112h6.0"></path><path d="M300.0 112h6.0"></path><text class="comment" x="270.5" y="117">COMMAND</text></g><path d="M306.0 112a10 10 0 0 0 10 -10v-37a10 10 0 0 1 10 -10"></path></g></g><path d="M326.0 55h20"></path><path d="M131.0 55a10 10 0 0 1 10 10v64a10 10 0 0 0 10 10"></path><g class="terminal ">
<path d="M151.0 139h64.75"></path><path d="M261.25 139h64.75"></path><rect height="22" rx="10" ry="10" width="45.5" x="215.75" y="128"></rect><text x="238.5" y="143">pwd</text></g><path d="M326.0 139a10 10 0 0 0 10 -10v-64a10 10 0 0 1 10 -10"></path><path d="M131.0 55a10 10 0 0 1 10 10v94a10 10 0 0 0 10 10"></path><g class="terminal ">
<path d="M151.0 169h43.5"></path><path d="M282.5 169h43.5"></path><rect height="22" rx="10" ry="10" width="88.0" x="194.5" y="158"></rect><text x="238.5" y="173">showpath</text></g><path d="M326.0 169a10 10 0 0 0 10 -10v-94a10 10 0 0 1 10 -10"></path><path d="M131.0 55a10 10 0 0 1 10 10v124a10 10 0 0 0 10 10"></path><g>
<path d="M151.0 199h10.75"></path><path d="M315.25 199h10.75"></path><g class="terminal ">
<path d="M161.75 199h0.0"></path><path d="M241.25 199h0.0"></path><rect height="22" rx="10" ry="10" width="79.5" x="161.75" y="188"></rect><text x="201.5" y="203">addpath</text></g><path d="M241.25 199h10"></path><path d="M251.25 199h10"></path><g class="non-terminal ">
<path d="M261.25 199h0.0"></path><path d="M315.25 199h0.0"></path><rect height="22" width="54.0" x="261.25" y="188"></rect><text x="288.25" y="203">PATH</text></g></g><path d="M326.0 199a10 10 0 0 0 10 -10v-124a10 10 0 0 1 10 -10"></path><path d="M131.0 55a10 10 0 0 1 10 10v154a10 10 0 0 0 10 10"></path><g class="terminal ">
<path d="M151.0 229h47.75"></path><path d="M278.25 229h47.75"></path><rect height="22" rx="10" ry="10" width="79.5" x="198.75" y="218"></rect><text x="238.5" y="233">delpath</text></g><path d="M326.0 229a10 10 0 0 0 10 -10v-154a10 10 0 0 1 10 -10"></path></g><g class="non-terminal ">
<path d="M131.0 28h0.0"></path><path d="M225.0 28h0.0"></path><text class="comment" x="178.0" y="33">internal&#95;cmd</text></g></g><path d="M346.0 55h10"></path><path d="M121.0 55v226a10 10 0 0 0 10 10"></path><g>
<path d="M131.0 291h2.75"></path><path d="M343.25 291h2.75"></path><rect class="group-box" height="68" rx="10" ry="10" width="209.5" x="133.75" y="272"></rect><g>
<path d="M133.75 291h10.0"></path><path d="M333.25 291h10.0"></path><g>
<path d="M143.75 291h0.0"></path><path d="M267.75 291h0.0"></path><path d="M173.75 291h10"></path><g class="non-terminal ">
<path d="M183.75 291h0.0"></path><path d="M237.75 291h0.0"></path><rect height="22" width="54.0" x="183.75" y="280"></rect><text x="210.75" y="295">PATH</text></g><path d="M237.75 291h10"></path><path d="M173.75 291v20a10 10 0 0 0 10 10"></path><g class="non-terminal ">
<path d="M183.75 321h4.25"></path><path d="M233.5 321h4.25"></path><rect height="22" width="45.5" x="188.0" y="310"></rect><text x="210.75" y="325">ARG</text></g><path d="M237.75 321a10 10 0 0 0 10 -10v-10"></path><g class="diagram-text">
<title>take one or more branches, once each, in any order</title><path class="diagram-text" d="M 173.75 281 h -26 a 4 4 0 0 0 -4 4 v 12 a 4 4 0 0 0 4 4 h 26 z"></path><text class="diagram-text" x="158.75" y="295">1+</text><path class="diagram-text" d="M 247.75 281 h 16 a 4 4 0 0 1 4 4 v 12 a 4 4 0 0 1 -4 4 h -16 z"></path><text class="diagram-arrow" x="257.75" y="295">↺</text></g></g><path d="M267.75 291h10"></path><path d="M277.75 291h10"></path><g class="non-terminal ">
<path d="M287.75 291h0.0"></path><path d="M333.25 291h0.0"></path><rect height="22" width="45.5" x="287.75" y="280"></rect><text x="310.5" y="295">EOL</text></g></g><g class="non-terminal ">
<path d="M133.75 264h0.0"></path><path d="M227.75 264h0.0"></path><text class="comment" x="180.75" y="269">external&#95;cmd</text></g></g><path d="M346.0 291a10 10 0 0 0 10 -10v-216"></path><path d="M121.0 55v283a10 10 0 0 0 10 10"></path><g>
<path d="M131.0 348h215.0"></path></g><path d="M346.0 348a10 10 0 0 0 10 -10v-273"></path><path d="M121.0 55v299a10 10 0 0 0 10 10"></path><g class="non-terminal ">
<path d="M131.0 364h85.0"></path><path d="M261.0 364h85.0"></path><text class="comment" x="238.5" y="369">error</text></g><path d="M346.0 364a10 10 0 0 0 10 -10v-289"></path><g class="diagram-text">
<title>take one or more branches, once each, in any order</title><path class="diagram-text" d="M 121.0 45 h -26 a 4 4 0 0 0 -4 4 v 12 a 4 4 0 0 0 4 4 h 26 z"></path><text class="diagram-text" x="106.0" y="59">1+</text><path class="diagram-text" d="M 356.0 45 h 16 a 4 4 0 0 1 4 4 v 12 a 4 4 0 0 1 -4 4 h -16 z"></path><text class="diagram-arrow" x="366.0" y="59">↺</text></g></g><path d="M376.0 55h10"></path><path d="M 386.0 55 h 20 m -10 -10 v 20 m 10 -20 v 20"></path></g></svg>